<svg width="32" height="34" viewBox="0 0 32 34" fill="none" xmlns="http://www.w3.org/2000/svg">
<g id="Group">
<path id="Vector" d="M31.9056 5.20831C31.716 4.62347 31.2609 4.16577 30.6921 4.00049C30.6289 3.98777 30.5657 3.96235 30.5025 3.94963C30.591 3.86064 30.6668 3.78435 30.7553 3.69535C30.9955 3.44108 31.0966 3.13594 31.0587 2.81809C30.9955 2.38582 30.7553 2.06797 30.3761 1.91541C29.9715 1.75013 29.567 1.82641 29.2384 2.10612C29.1372 2.19511 29.0361 2.29682 28.935 2.39854C28.9097 2.30954 28.8844 2.22054 28.8591 2.13154C28.6442 1.52128 28.1512 1.06357 27.5445 0.911008C26.9377 0.758441 26.2804 0.94915 25.8127 1.39414C25.5851 1.61027 25.3702 1.82641 25.1553 2.05526L24.5612 2.65281C24.2452 2.95795 23.9418 3.26308 23.651 3.59364C22.9052 4.44548 22.6145 5.41173 22.8041 6.46699C22.9052 7.05183 23.019 7.52224 23.1454 7.95451C23.196 8.13251 23.1833 8.20879 23.019 8.37407C21.0091 10.3829 19.0118 12.3917 17.0145 14.4005L15.0804 16.3457C14.9667 16.4601 14.8402 16.5745 14.7391 16.7017C14.4105 17.0577 14.3346 17.4899 14.5242 17.9222C14.6759 18.2655 14.954 18.4943 15.2953 18.5706C15.6746 18.6342 16.0664 18.5071 16.3698 18.2019C17.0524 17.5154 17.735 16.8288 18.4429 16.1168C18.7716 16.7653 18.9107 17.4137 18.8601 18.0621C18.7337 19.6005 17.912 20.7193 16.4709 21.266C15.1184 21.7873 13.4497 21.3295 12.5017 20.1853C11.7558 19.2826 11.4904 18.2782 11.7053 17.1848C11.9707 15.8117 12.7798 14.8709 14.1071 14.375C14.5621 14.2098 15.0425 14.197 15.4976 14.197C15.9527 14.197 16.3066 14.0572 16.5468 13.7393C16.8249 13.3834 16.8755 12.9892 16.7111 12.6078C16.5594 12.2645 16.2687 12.0611 15.8389 12.0103C15.4344 11.9721 15.0551 11.9721 14.6886 12.0103C12.4132 12.2772 10.7825 13.5105 9.84704 15.6973C9.36668 16.8034 9.30348 18.0366 9.63215 19.3462C10.3653 22.2068 13.298 24.1139 16.1802 23.6053C18.3924 23.2112 19.9093 21.9525 20.693 19.842C21.0217 18.9775 21.1355 18.1638 21.0343 17.3501C20.9206 16.3076 20.5793 15.3667 20.0104 14.5276C20.6172 13.9301 21.224 13.3198 21.8307 12.6968C22.1594 13.1164 22.4375 13.5995 22.703 14.1462C23.4361 15.6337 23.7016 17.1975 23.4993 18.7995C23.2465 20.8591 22.4122 22.5628 21.0091 23.8723C19.0497 25.7158 16.6858 26.4787 13.968 26.1354C12.982 26.0083 12.0213 25.665 11.1111 25.131C8.8484 23.7833 7.47053 21.8254 7.0281 19.308C6.82584 18.1765 6.83848 17.1085 7.07866 16.1296C7.71071 13.4596 9.22763 11.5017 11.5915 10.3066C12.5017 9.84889 13.475 9.5819 14.5748 9.4929C15.7504 9.4039 16.8881 9.54375 17.9626 9.91246C18.1648 9.98874 18.3671 10.065 18.5693 10.154C18.7084 10.2176 18.8475 10.2684 18.9865 10.3193C19.3278 10.4464 19.6691 10.4337 19.9851 10.2557C20.3264 10.065 20.5161 9.72175 20.5161 9.32762C20.5161 8.9462 20.3265 8.60292 19.9978 8.41222C19.4921 8.1198 18.9233 7.89094 18.2154 7.67481C16.0538 7.03911 13.9175 7.08997 11.8696 7.80195C9.91025 8.4885 8.30484 9.62004 7.07866 11.1584C5.56174 13.0655 4.76535 15.2904 4.70215 17.7442C4.71479 18.3926 4.76535 18.9266 4.8412 19.4097C5.18251 21.5965 6.13059 23.5163 7.64751 25.131C9.36669 26.9491 11.5283 28.0298 14.0439 28.3349C14.4737 28.3858 14.8908 28.4112 15.3206 28.4112C17.1915 28.4112 18.9991 27.8899 20.6804 26.8601C22.8167 25.5633 24.321 23.7071 25.1427 21.3804C26.0149 18.9139 25.9643 16.3838 25.0036 13.8665C24.6623 12.9638 24.144 12.0993 23.3729 11.1203C23.828 10.6753 24.2831 10.2176 24.7255 9.74718L25.3702 9.89974C25.5978 9.9506 25.8127 10.0015 26.0402 10.065C27.4181 10.4083 28.6063 10.065 29.567 9.06063C29.9336 8.67921 30.3129 8.29779 30.6794 7.92909L31.3115 7.29339C31.4253 7.17897 31.539 7.05183 31.6402 6.91197C31.9941 6.44156 32.0952 5.80586 31.9056 5.22102V5.20831ZM27.1273 4.17848C26.4194 4.89046 25.7115 5.60244 24.9783 6.33985C24.9531 6.2 24.9278 6.07286 24.9151 5.98386C24.9151 5.57701 25.0289 5.28459 25.2944 5.00489C25.6736 4.62347 26.0528 4.22934 26.4321 3.84792L26.9251 3.35208C26.9883 3.63178 27.0515 3.91149 27.1273 4.16577V4.17848ZM29.5038 5.98386L29.1752 6.31442C28.7201 6.77212 28.265 7.24254 27.7973 7.70024C27.5192 7.96723 27.1526 8.05623 26.6722 7.95451C26.6343 7.95451 26.609 7.9418 26.5711 7.92909C27.0136 7.50953 27.4307 7.07725 27.8605 6.64498C28.1386 6.35256 28.4293 6.07286 28.6695 5.79315C28.9476 5.85672 29.2257 5.92029 29.5038 5.97114V5.98386Z" fill="#FF8CF4"/>
<path id="Vector_2" d="M29.2387 11.7306C29.1502 11.5018 28.9732 11.1712 28.5687 11.0568C28.3032 10.9678 27.8861 10.9551 27.4816 11.3492C27.0771 11.7433 27.0897 12.1629 27.1656 12.4426C27.2035 12.5697 27.2414 12.6842 27.292 12.7986C28.1263 14.8074 28.4297 16.9942 28.1895 19.3081C27.9746 21.3423 27.292 23.2494 26.1796 24.9658C25.2062 26.4533 23.98 27.6993 22.5263 28.6783C20.7313 29.8861 18.8225 30.6108 16.8378 30.8269C14.7774 31.0558 12.8938 30.8651 11.0862 30.2675C8.76023 29.492 6.77559 28.1189 5.19546 26.2118C3.33723 23.9614 2.32595 21.3296 2.19954 18.38C2.12369 16.6763 2.33859 15.138 2.84423 13.714C3.42572 12.0358 4.17154 10.6754 5.10697 9.55655C5.916 8.59029 6.72503 7.81474 7.58461 7.17905C9.45549 5.81866 11.5539 5.00497 13.8166 4.77612C15.4853 4.61084 17.1159 4.72526 18.6708 5.14482C19.2902 5.3101 19.897 5.55167 20.4405 5.75509C20.9841 5.97123 21.6161 5.66609 21.8563 5.09397C22.0712 4.5727 21.831 4.01328 21.2875 3.75901C20.8198 3.54287 20.3394 3.36487 19.8843 3.21231C17.4446 2.44947 15.0175 2.28419 12.641 2.71646C10.985 3.0216 9.53133 3.51744 8.20402 4.22942C5.95392 5.43724 4.13361 7.05191 2.78103 9.02256C1.01128 11.6162 0.0505641 14.5277 0 17.4519C0 18.647 0.0884887 19.6005 0.278104 20.6431C0.809027 23.491 2.06049 26.0083 4.0072 28.1316C6.53541 30.8905 9.69567 32.5306 13.4121 33.0264C14.0189 33.1027 14.6383 33.1409 15.2577 33.1409C16.0162 33.1409 16.7746 33.0773 17.5331 32.9629C19.8464 32.5942 21.9322 31.7677 23.7398 30.5345C25.4464 29.3775 26.8622 27.9409 27.9493 26.2753C29.1881 24.3937 29.9845 22.2832 30.3258 20.0074C30.6166 18.1257 30.5281 16.2314 30.0856 14.3751C29.8834 13.5233 29.6053 12.6587 29.2387 11.7306Z" fill="#FF8CF4"/>
</g>
</svg>
