<svg width="88" height="68" viewBox="0 0 88 68" fill="none" xmlns="http://www.w3.org/2000/svg">
<g id="Capa_1" clip-path="url(#clip0_2005_331)">
<path id="Vector" d="M42.6538 23.0678C47.38 20.0145 51.9579 16.7276 56.7552 13.788C66.1244 8.04651 76.3002 3.64609 86.8851 0.766357C73.4479 19.2242 66.0533 41.376 55.0236 61.3904C54.1934 62.8991 52.8355 64.6353 51.1751 64.2043C50.2738 63.9708 49.663 63.1506 49.0937 62.4022C44.6522 56.5649 38.236 52.2962 31.1735 50.4642C35.2829 49.195 38.657 46.2733 41.7821 43.2918C50.8667 34.6227 58.8959 24.828 65.6382 14.2011C53.8614 22.3254 42.8851 31.6352 32.9347 41.9507C29.9282 45.0699 26.6786 48.4586 22.4209 49.1111C20.1023 49.4644 17.7481 48.9495 15.4592 48.4346C10.7746 47.3809 5.05812 46.9079 0.74707 44.9143C3.02416 42.5075 8.01122 41.3161 11.0829 39.9092C14.7773 38.2208 18.4538 36.4786 22.0889 34.6646C29.015 31.2041 36.3859 27.6598 42.6538 23.0618V23.0678Z" stroke="white" stroke-width="1.5" stroke-miterlimit="10"/>
<path id="Vector_2" d="M24.4434 52.4159C25.3447 57.3013 26.6493 62.1148 28.3393 66.7846C30.2191 62.3602 32.2531 58.0077 34.4471 53.733C32.6148 57.3551 30.7765 60.9773 28.9442 64.6054C28.6062 65.2759 28.2504 66.0003 28.3275 66.7487C32.4606 63.9827 36.4692 61.0371 40.3355 57.9119" stroke="white" stroke-width="1.5" stroke-miterlimit="10"/>
</g>
<defs>
<clipPath id="clip0_2005_331">
<rect width="88" height="68" fill="white"/>
</clipPath>
</defs>
</svg>
