<svg width="83" height="89" viewBox="0 0 83 89" fill="none" xmlns="http://www.w3.org/2000/svg">
<g id="Capa_1" clip-path="url(#clip0_2005_351)">
<path id="Vector" d="M0.800574 28.0773C7.80598 24.7446 16.14 24.3131 23.4546 26.9017C30.7692 29.4902 36.9764 35.0715 40.3283 42.0681C41.762 45.0632 42.6959 48.4692 41.9407 51.6993C41.1874 54.9315 38.344 57.8299 35.0251 57.7768C32.5427 57.7341 30.2814 56.0679 29.03 53.9219C27.7807 51.7741 27.4166 49.2181 27.4464 46.7343C27.5546 37.5894 33.0721 28.7144 41.2236 24.5692C42.7578 23.7901 44.4053 23.1603 46.1255 23.0995C49.0899 22.9937 51.8753 24.5907 54.0853 26.5684C59.1526 31.0995 61.9648 37.5904 64.2623 43.9862C67.288 52.3994 69.6923 61.0371 71.4531 69.804" stroke="#CEFF20" stroke-width="1.5" stroke-miterlimit="10"/>
<path id="Vector_2" d="M66.1275 64.3833C68.7885 65.3655 70.8655 67.7973 71.4151 70.5831C71.3283 69.3869 71.8205 68.2888 72.4327 67.2579C73.0449 66.2271 73.8853 65.3477 74.7814 64.5511" stroke="#CEFF20" stroke-width="1.5" stroke-miterlimit="10"/>
</g>
<defs>
<clipPath id="clip0_2005_351">
<rect width="42.9849" height="77.7636" fill="white" transform="matrix(0.777991 -0.628276 -0.628276 -0.777991 49.4902 88.4457)"/>
</clipPath>
</defs>
</svg>
