<svg width="122" height="120" viewBox="0 0 122 120" fill="none" xmlns="http://www.w3.org/2000/svg">
<g id="Capa_1" clip-path="url(#clip0_2003_1590)">
<path id="Vector" d="M97.4375 1.8543C103.38 0.264901 110.213 -1.00791e-07 115.186 3.63012C123.38 9.61491 122.108 22.2615 118.329 31.69C114.1 42.2566 107.883 51.8813 101.706 61.4275C89.4784 80.3238 77.251 99.22 65.0333 118.116C61.0098 99.5536 42.4288 88.7613 28.5567 75.8205C18.0523 66.0191 9.65267 53.9612 4.0725 40.7064C0.14681 31.3858 -1.63493 18.9159 6.25562 12.6171C12.2078 7.85872 20.9403 9.10473 28.0672 11.793C43.907 17.7778 52.8353 29.0998 63.3299 41.3147C68.2738 23.3505 78.0635 7.05421 97.4375 1.8543Z" stroke="#FF8CF4" stroke-width="1.5" stroke-miterlimit="10"/>
</g>
<defs>
<clipPath id="clip0_2003_1590">
<rect width="122" height="120" fill="white"/>
</clipPath>
</defs>
</svg>
