<svg width="32" height="20" viewBox="0 0 32 20" fill="none" xmlns="http://www.w3.org/2000/svg">
<path id="Vector" d="M27.4336 16.4171C27.3111 16.4171 27.2186 16.4171 27.1261 16.4171C25.679 16.4171 24.2318 16.4197 22.7834 16.4158C22.2697 16.4145 21.8598 16.6157 21.5737 17.0502C21.2875 17.4847 21.26 17.9566 21.4924 18.4181C21.7399 18.9107 22.1585 19.1544 22.6984 19.1621C23.157 19.1685 23.6144 19.1634 24.0731 19.1634C26.2388 19.1634 28.4046 19.1647 30.5703 19.1672C31.4314 19.1672 32 18.587 32 17.7039C32 15.0414 32 12.3789 32 9.71647C32 9.18913 31.8463 8.73529 31.3964 8.43487C30.5466 7.86886 29.4156 8.45808 29.3469 9.50631C29.3269 9.79898 29.3344 10.0942 29.3369 10.3882C29.3431 11.7304 29.3194 13.0726 29.3506 14.4135C29.3506 14.4277 29.3431 14.4419 29.3344 14.4689C29.2369 14.4238 29.1744 14.3439 29.1069 14.2742C27.8247 12.9604 26.5425 11.6453 25.2616 10.3289C23.1495 8.15767 21.0375 5.98644 18.9268 3.81392C18.4094 3.28143 17.5996 3.27369 17.0784 3.80876C15.3088 5.628 13.543 7.45112 11.7759 9.27294C11.6697 9.38253 11.556 9.48568 11.4572 9.60301C11.376 9.69842 11.3248 9.69584 11.236 9.60301C10.6237 8.96221 10.0063 8.32528 9.38896 7.68964C7.062 5.3018 4.73254 2.91526 2.41057 0.520973C2.0769 0.176722 1.70198 -0.0411743 1.2196 0.0065309C0.67847 0.0593934 0.301057 0.357228 0.0998538 0.87296C-0.105099 1.39901 0.0136236 1.87348 0.381039 2.27833C0.67847 2.60711 0.997147 2.91526 1.30708 3.23243C4.18891 6.19273 7.072 9.15432 9.95258 12.1146C10.1038 12.2693 10.2463 12.4331 10.3975 12.5878C10.9199 13.1242 11.7197 13.1487 12.2496 12.6213C12.9044 11.9702 13.5418 11.3023 14.1854 10.6409C15.4151 9.37866 16.646 8.1177 17.872 6.85029C17.9807 6.73812 18.0382 6.74585 18.1419 6.85287C20.1527 8.92353 22.1673 10.9903 24.1806 13.0584C25.2478 14.1543 26.3163 15.2503 27.3836 16.3475C27.3936 16.3578 27.4011 16.372 27.4336 16.4158V16.4171Z" fill="#FF8CF4"/>
</svg>
