<svg width="17" height="33" viewBox="0 0 17 33" fill="none" xmlns="http://www.w3.org/2000/svg">
<g id="Capa_1" clip-path="url(#clip0_2003_1000)">
<path id="Vector" d="M6.8162 21.6558C6.8162 20.5545 6.8162 19.4531 6.8162 18.3517C6.8162 18.2065 6.8162 18.1097 6.64261 18.0734C5.23077 17.8313 3.93465 17.2625 2.7774 16.3911C1.56229 15.4713 0.671205 14.2731 0.23145 12.7602C-0.289313 10.9448 0.0462896 9.23828 1.11096 7.70121C2.41865 5.82526 4.23553 4.80862 6.3533 4.31241C6.37645 4.31241 6.39959 4.31241 6.42274 4.31241C6.80463 4.23979 6.80463 4.23979 6.80463 3.84039C6.80463 3.33207 6.80463 2.83585 6.80463 2.32753C6.85092 1.23828 7.54527 0.5 8.51736 0.5C9.4663 0.5 10.1838 1.27458 10.1954 2.33964C10.1954 2.87216 10.2069 3.40469 10.1954 3.92511C10.1954 4.14297 10.2648 4.21558 10.4615 4.26399C12.3247 4.66339 13.9796 5.47428 15.2988 6.93873C16.3288 8.0885 16.9421 9.44402 17 11.0416C17.0347 12.0582 16.3519 12.8933 15.3798 12.9418C14.4772 12.9902 13.644 12.2761 13.6324 11.3321C13.6093 10.0734 12.9728 9.26248 12.0354 8.63313C11.5262 8.29425 10.9939 8.04009 10.4152 7.85855C10.2532 7.81014 10.1838 7.83434 10.1838 8.04009C10.1838 10.2307 10.1954 12.4213 10.1838 14.5998C10.1838 14.8177 10.2301 14.8903 10.45 14.9387C12.8802 15.4107 14.8822 16.5847 16.1784 18.8722C16.919 20.1672 17.1736 21.5832 16.8496 23.0719C16.4908 24.7179 15.5766 25.9765 14.3036 26.9811C13.1464 27.9009 11.8387 28.4213 10.4384 28.7239C10.2301 28.7723 10.1722 28.857 10.1838 29.0749C10.1954 29.6437 10.1954 30.2005 10.1838 30.7693C10.1607 31.6407 9.50102 32.4032 8.69095 32.4879C7.83458 32.5726 7.0708 32.0401 6.87406 31.2171C6.80463 30.9266 6.80463 30.6362 6.80463 30.3336C6.80463 29.8979 6.80463 29.4622 6.80463 29.0265C6.80463 28.8449 6.76991 28.7602 6.57318 28.7239C4.76787 28.3729 3.15929 27.5862 1.86317 26.2307C0.775357 25.0809 0.0925796 23.7133 -3.53903e-07 22.0673C-0.0578628 21.0749 0.50919 20.264 1.40027 20.0946C2.37236 19.9009 3.26344 20.615 3.3676 21.6558C3.39074 21.8737 3.41389 22.0915 3.4486 22.2973C3.56433 22.9992 3.96937 23.5197 4.46698 23.9675C5.0919 24.5242 5.82097 24.8873 6.6079 25.1415C6.78148 25.202 6.8162 25.1657 6.8162 24.972C6.8162 23.8585 6.8162 22.7451 6.8162 21.6437V21.6558ZM10.1954 21.8495C10.1954 22.8903 10.1954 23.9312 10.1954 24.972C10.1954 25.1899 10.2648 25.202 10.4268 25.1415C10.8434 24.9841 11.2485 24.8268 11.6419 24.621C12.3247 24.2458 12.9033 23.7496 13.3084 23.0598C13.806 22.2126 13.6787 21.0144 13.0538 20.2398C12.3594 19.3926 11.4683 18.8964 10.4731 18.5696C10.2532 18.497 10.2069 18.5575 10.2069 18.7753C10.2069 19.8041 10.2069 20.8207 10.2069 21.8495H10.1954ZM6.8162 11.1868C6.8162 10.146 6.8162 9.10514 6.8162 8.0643C6.8162 7.87065 6.76991 7.83434 6.58475 7.89486C5.85568 8.13691 5.17291 8.43949 4.58271 8.94781C3.98094 9.45613 3.54118 10.0734 3.43703 10.8843C3.32131 11.8162 3.71477 12.5545 4.32811 13.1717C4.9646 13.8132 5.73996 14.1762 6.57318 14.4667C6.76991 14.5393 6.82777 14.5151 6.82777 14.2852C6.82777 13.2564 6.82777 12.2156 6.82777 11.1868H6.8162Z" fill="#FF8CF4"/>
</g>
<defs>
<clipPath id="clip0_2003_1000">
<rect width="17" height="32" fill="white" transform="translate(0 0.5)"/>
</clipPath>
</defs>
</svg>
