<svg width="32" height="34" viewBox="0 0 32 34" fill="none" xmlns="http://www.w3.org/2000/svg">
<path id="Vector" d="M16.0129 0.859131C24.8948 0.871339 32.1431 8.22072 31.9979 17.2793C31.8526 26.1181 24.6528 33.3087 15.6862 33.1378C7.13103 32.9791 -0.189855 25.8861 0.0037548 16.6078C0.185264 8.02539 7.17944 0.895756 16.0129 0.859131ZM11.1968 17.0229C11.1605 17.9263 11.2695 19.1349 11.33 20.3435C11.33 20.4534 11.3905 20.4656 11.4752 20.4656C11.9229 20.429 12.3706 20.3924 12.8183 20.3558C14.3309 20.2215 15.8314 20.197 17.344 20.2459C18.3967 20.2825 19.4374 20.3435 20.478 20.4534C20.599 20.4656 20.6717 20.4534 20.6596 20.3069C20.6596 20.2093 20.6596 20.1116 20.6596 20.0261C20.7806 18.5856 20.8169 17.1572 20.7564 15.7166C20.7322 15.0329 20.6838 14.3371 20.6475 13.6534C20.6475 13.5435 20.5991 13.5313 20.5143 13.5435C20.0908 13.5802 19.6673 13.6168 19.2317 13.6534C17.828 13.7755 16.4243 13.8121 15.0207 13.7755C13.8348 13.7511 12.6489 13.6656 11.4631 13.5435C11.3784 13.5435 11.3179 13.5069 11.3058 13.6412C11.2453 14.6667 11.1726 15.6922 11.1726 17.0351L11.1968 17.0229ZM29.8681 16.7665C29.856 15.0452 29.5172 13.397 28.888 11.81C28.8396 11.6757 28.7791 11.639 28.646 11.7001C26.7946 12.4082 24.8827 12.8843 22.9224 13.2017C22.7772 13.2261 22.7409 13.2872 22.753 13.4337C22.8498 14.3249 22.8982 15.2039 22.9224 16.0951C22.9587 17.5845 22.9103 19.0739 22.753 20.5633C22.7409 20.7342 22.7893 20.783 22.9345 20.8075C24.0477 20.9784 25.1489 21.2348 26.2379 21.5155C27.0608 21.7231 27.8594 22.0283 28.6702 22.3091C28.7912 22.3457 28.8396 22.3335 28.8759 22.2114C28.9243 22.0405 29.009 21.8818 29.0695 21.7109C29.6503 20.1116 29.8923 18.4635 29.8681 16.7665ZM2.12137 17.2182C2.10927 17.7066 2.18187 18.3536 2.26658 19.0128C2.41178 20.1238 2.6901 21.1981 3.11362 22.2358C3.16202 22.3579 3.21043 22.3701 3.31933 22.3335C3.81546 22.1382 4.32368 21.9428 4.84401 21.7963C6.21138 21.3935 7.59086 21.076 8.98243 20.8197C9.28495 20.7586 9.24865 20.8197 9.21234 20.5267C9.12764 19.6843 9.07924 18.8541 9.05504 18.0118C9.01873 16.5101 9.05504 15.0085 9.21234 13.5069C9.22848 13.3441 9.15991 13.2505 9.00663 13.2261C7.08263 12.8965 5.19493 12.4204 3.36773 11.7245C3.21043 11.6635 3.14992 11.6879 3.07732 11.8466C2.41178 13.5191 2.12137 15.2649 2.10927 17.2304L2.12137 17.2182ZM16.2791 11.6268C16.9931 11.6268 18.0095 11.578 19.0381 11.517C19.4374 11.4925 19.8246 11.4559 20.2118 11.4193C20.3207 11.4193 20.3691 11.3949 20.3328 11.2606C20.2723 10.9554 20.236 10.6502 20.1755 10.345C19.8125 8.4771 19.2438 6.69469 18.3362 5.02215C17.9248 4.26524 17.4045 3.60599 16.63 3.1787C16.1944 2.93454 15.7588 2.94675 15.3232 3.1787C14.8875 3.41066 14.5487 3.74029 14.2462 4.11874C13.5323 5.00995 13.0724 6.04765 12.6731 7.09756C12.177 8.39164 11.8745 9.72234 11.6446 11.0897C11.5962 11.3949 11.5962 11.3949 11.9229 11.4193C13.2661 11.5414 14.6092 11.6146 16.2549 11.6146L16.2791 11.6268ZM15.9161 22.3945C15.4321 22.3823 14.8633 22.4067 14.2946 22.4312C13.4476 22.4678 12.6126 22.5288 11.7656 22.6021C11.6809 22.6021 11.5962 22.6021 11.6204 22.7486C11.7777 23.6642 11.9713 24.5798 12.2133 25.4832C12.5884 26.8261 13.0845 28.108 13.8227 29.2922C14.1978 29.9026 14.6576 30.452 15.2869 30.8183C15.7467 31.0868 16.2186 31.0746 16.6784 30.806C17.1141 30.5619 17.465 30.1956 17.7796 29.8172C18.2273 29.28 18.5177 28.6452 18.8082 28.0226C19.5826 26.3378 20.0061 24.5554 20.3207 22.7364C20.3449 22.6143 20.2844 22.6143 20.1997 22.6021C19.9214 22.5777 19.6431 22.5532 19.3648 22.5288C18.2394 22.4434 17.102 22.3823 15.8919 22.3945H15.9161ZM11.9955 30.3421C11.9955 30.3421 11.9592 30.2811 11.935 30.2445C11.7777 29.9759 11.5962 29.7073 11.4631 29.4143C10.7733 27.9737 10.2893 26.4721 9.92628 24.9216C9.78107 24.299 9.66007 23.6764 9.55116 23.0416C9.52696 22.9073 9.47856 22.8707 9.35755 22.9073C9.23655 22.9439 9.11554 22.9439 8.99453 22.9683C7.40935 23.2613 5.84837 23.6398 4.33578 24.2014C4.11797 24.2746 4.11797 24.2746 4.25108 24.4822C4.25108 24.4822 4.25108 24.5066 4.26318 24.5066C5.03762 25.7518 6.00567 26.8261 7.13103 27.7662C8.4137 28.8405 9.84158 29.6951 11.4389 30.2323C11.5962 30.2811 11.7414 30.3421 11.8987 30.391C11.935 30.391 11.9955 30.4276 11.9955 30.3421ZM20.0182 3.59379C19.994 3.69145 20.0424 3.72808 20.0787 3.78912C20.1876 3.97224 20.3086 4.15537 20.4054 4.3507C21.0468 5.60815 21.5066 6.92665 21.8696 8.28177C22.1116 9.17297 22.2931 10.0642 22.4504 10.9676C22.4625 11.053 22.4746 11.1385 22.6078 11.1141C23.1523 10.992 23.6968 10.9065 24.2413 10.7845C25.4272 10.5281 26.5768 10.1863 27.7263 9.78338C27.8473 9.74676 27.8594 9.71013 27.7989 9.60026C26.843 8.04981 25.5966 6.76794 24.1566 5.6814C22.9103 4.74136 21.5187 4.09433 20.0303 3.60599L20.0182 3.59379ZM9.43016 11.1141C9.58746 11.1385 9.55116 11.0042 9.56326 10.9432C9.68427 10.1618 9.84158 9.38051 10.0352 8.61139C10.4103 7.13419 10.8943 5.70582 11.6083 4.36291C11.7172 4.14316 11.8503 3.93562 11.9713 3.72808C11.9955 3.69145 12.0197 3.65483 11.9834 3.6182C11.9592 3.59379 11.9229 3.6182 11.8866 3.6182C11.7898 3.64262 11.6809 3.67924 11.5841 3.71587C9.99889 4.24082 8.57101 5.04657 7.27624 6.10869C6.06618 7.09756 5.02552 8.24514 4.19058 9.58805C4.11797 9.71013 4.15428 9.73455 4.26318 9.77118C4.80771 9.97872 5.36434 10.1618 5.92097 10.3205C7.07053 10.6502 8.23219 10.9065 9.40595 11.1019L9.43016 11.1141ZM27.8473 24.299C27.8473 24.299 27.7747 24.238 27.7263 24.2258C27.3149 24.0671 26.8914 23.9206 26.4679 23.7985C25.1973 23.4078 23.9025 23.1515 22.5957 22.8951C22.4746 22.8707 22.4504 22.9317 22.4383 23.0294C22.3778 23.4078 22.3173 23.7863 22.2326 24.1525C21.7728 26.289 21.2041 28.3766 20.0545 30.2689C20.0303 30.3055 19.9819 30.3543 20.0182 30.4032C20.0545 30.4398 20.1029 30.4032 20.1392 30.391C22.0269 29.7561 23.7452 28.8161 25.2336 27.4488C26.2016 26.5576 27.0608 25.5931 27.7626 24.4699C27.7868 24.4211 27.8231 24.3723 27.8473 24.3234V24.299Z" fill="#FF8CF4"/>
</svg>
